<svg xmlns="http://www.w3.org/2000/svg" width="26" height="26" viewBox="0 0 26 26">
  <defs>
    <style>
      .cls-1 {
        fill: rgba(255,255,255,0.01);
      }

      .cls-2 {
        fill: none;
        stroke: #414141;
        stroke-width: 1.4px;
      }

      .cls-3 {
        fill: #414141;
        font-size: 11px;
        font-family: PingFangSC-Medium, PingFang SC;
        font-weight: 500;
      }
    </style>
  </defs>
  <g id="结算管理" transform="translate(-24.727 -397)">
    <g id="结算管理-2" data-name="结算管理" transform="translate(26.327 398)">
      <rect id="矩形_9" data-name="矩形 9" class="cls-1" width="26" height="26" transform="translate(-1.599 -1)"/>
      <path id="路径_5" data-name="路径 5" class="cls-2" d="M14.941,8H10.618A.579.579,0,0,0,10,8.53V26.551a.579.579,0,0,0,.618.53H27.911a.579.579,0,0,0,.618-.53V8.53A.579.579,0,0,0,27.911,8H23.588" transform="translate(-7.886 -4.153)"/>
      <path id="路径_6" data-name="路径 6" class="cls-2" d="M18,8.3V5.65h2.148a.027.027,0,0,0,.027-.026V4.59a1.632,1.632,0,0,1,3.262,0V5.624a.027.027,0,0,0,.027.026h2.148V8.3a.537.537,0,0,1-.544.53H18.544A.537.537,0,0,1,18,8.3Z" transform="translate(-10.295 -1.804)"/>
    </g>
    <text id="_" data-name="$" class="cls-3" transform="translate(34.727 417)"><tspan x="0" y="0">$</tspan></text>
  </g>
</svg>
