<svg xmlns="http://www.w3.org/2000/svg" width="53.335" height="53.339" viewBox="0 0 53.335 53.339">
  <defs>
    <style>
      .cls-1 {
        fill: #a49e83;
        stroke: #a49f83;
      }
    </style>
  </defs>
  <g id="交易额" transform="translate(-110.962 -113.83)">
    <path id="路径_14" data-name="路径 14" class="cls-1" d="M137.63,114.33A26.169,26.169,0,1,0,163.8,140.5,26.2,26.2,0,0,0,137.63,114.33Zm0,49.642A23.472,23.472,0,1,1,161.1,140.5,23.5,23.5,0,0,1,137.63,163.971Z" transform="translate(0 0)"/>
    <path id="路径_15" data-name="路径 15" class="cls-1" d="M350.595,325.189a1.348,1.348,0,1,0,0-2.7h-7.71l5.7-6.22a1.348,1.348,0,1,0-1.989-1.821l-6.483,7.073-6.483-7.076a1.348,1.348,0,1,0-1.989,1.821l5.7,6.22h-7.744a1.349,1.349,0,0,0,0,2.7h9.153v5.225h-9.153a1.348,1.348,0,0,0,0,2.7h9.153v7.531a1.349,1.349,0,0,0,2.7,0v-7.531h9.153a1.348,1.348,0,0,0,0-2.7h-9.153v-5.225h9.153Z" transform="translate(-202.507 -186.532)"/>
  </g>
</svg>
