<svg xmlns="http://www.w3.org/2000/svg" width="21.2" height="19.201" viewBox="0 0 21.2 19.201">
  <defs>
    <style>
    </style>
  </defs>
  <g id="商品管理" transform="translate(-99.7 -150.37)">
    <path id="路径_35" data-name="路径 35"
          d="M594.853,532.925h-.822l.592-.61a.394.394,0,0,0,0-.545l-1.281-1.323a.393.393,0,0,0-.282-.12.387.387,0,0,0-.282.12l-.561.579v-.835a.391.391,0,0,0-.391-.391h-1.81a.391.391,0,0,0-.391.391v.835l-.561-.579a.393.393,0,0,0-.282-.12.387.387,0,0,0-.282.12l-1.281,1.323a.394.394,0,0,0,0,.545l.592.61h-.822a.391.391,0,0,0-.391.391v1.87a.391.391,0,0,0,.391.391h.822l-.592.61a.394.394,0,0,0,0,.545l1.281,1.323a.393.393,0,0,0,.282.12.387.387,0,0,0,.282-.12l.561-.579v.835a.391.391,0,0,0,.391.391h1.81a.391.391,0,0,0,.391-.391v-.835l.561.579a.393.393,0,0,0,.282.12.387.387,0,0,0,.282-.12l1.281-1.323a.394.394,0,0,0,0-.545l-.589-.61h.819a.391.391,0,0,0,.391-.391v-1.87A.391.391,0,0,0,594.853,532.925Zm-.391,1.868H593.39a.39.39,0,0,0-.368.261c-.021.057-.044.117-.07.175a.391.391,0,0,0,.076.433l.772.8-.736.759-.754-.78a.391.391,0,0,0-.449-.081c-.057.026-.112.052-.167.073a.393.393,0,0,0-.253.365v1.122h-1.028V536.8a.392.392,0,0,0-.253-.365,1.549,1.549,0,0,1-.167-.073.394.394,0,0,0-.451.081l-.754.78-.736-.759.772-.8a.391.391,0,0,0,.076-.433c-.026-.057-.049-.117-.07-.175a.39.39,0,0,0-.368-.261H587.39V533.7h1.072a.39.39,0,0,0,.368-.261c.021-.057.044-.117.07-.175a.391.391,0,0,0-.076-.433l-.772-.8.736-.759.754.78a.393.393,0,0,0,.451.081c.055-.026.112-.05.167-.073a.392.392,0,0,0,.253-.365v-1.122h1.022V531.7a.392.392,0,0,0,.253.365,1.559,1.559,0,0,1,.167.073.394.394,0,0,0,.451-.081l.754-.78.736.759-.772.8a.391.391,0,0,0-.076.433c.026.057.05.117.07.175a.391.391,0,0,0,.368.261h1.075Z"
          transform="translate(-474.444 -369.665)"/>
    <path id="路径_36" data-name="路径 36"
          d="M686.171,630.8a1.816,1.816,0,1,0,1.771,1.815A1.8,1.8,0,0,0,686.171,630.8Zm0,2.848a1.034,1.034,0,1,1,.989-1.033A1.011,1.011,0,0,1,686.171,633.648Z"
          transform="translate(-569.693 -467.985)"/>
    <path id="路径_37" data-name="路径 37"
          d="M111.939,167.581l-3.994.564.01-5.639.01-5.484,7.875-1.113,2.3-.325-.008,3.629a.615.615,0,1,0,1.231,0l.008-4.34v-.046c0-.01,0-.023,0-.034a.023.023,0,0,0,0-.013l-.008-.041v-.005a.148.148,0,0,0-.01-.036s0-.008,0-.01a.2.2,0,0,0-.013-.036s0,0,0-.005l-.015-.039s0-.008-.005-.01l-.015-.031s0-.005-.005-.008l-.023-.036s-.005-.005-.005-.008a.1.1,0,0,0-.021-.026l-.008-.008c-.008-.01-.018-.021-.026-.031l-.008-.008-.023-.023s-.008-.005-.01-.01l-.005-.005-.026-.023-.005-.005a.217.217,0,0,0-.031-.021.013.013,0,0,0-.01-.005l-.038-.023-6.917-3.781a.607.607,0,0,0-.379-.07l-11.4,1.611h0l-.044.008c-.005,0-.008,0-.013,0l-.031.008-.015.005a.105.105,0,0,0-.026.01l-.018.008-.026.01-.015.008a.19.19,0,0,0-.031.018l-.008.005c-.013.008-.026.015-.036.023a.036.036,0,0,0-.01.008l-.023.018c-.005,0-.008.008-.013.01a.078.078,0,0,0-.021.021c-.005,0-.008.008-.01.01a.154.154,0,0,1-.021.021l-.01.01-.023.026s-.005.005-.005.008a.438.438,0,0,0-.026.036l-.008.013-.015.026-.008.015c-.005.008-.008.015-.013.023l-.008.015a.126.126,0,0,0-.01.028c0,.005,0,.01-.005.013a.219.219,0,0,0-.013.044v.005l-.008.039v.005a.02.02,0,0,1,0,.01c0,.01,0,.021-.005.031a.033.033,0,0,1,0,.015c0,.01,0,.021,0,.028v.023L99.8,165.069a.62.62,0,0,0,.32.544l6.914,3.789a.15.15,0,0,0,.021.01s.005,0,.01.005.031.013.044.018l.01,0,.038.013.01,0a.272.272,0,0,0,.049.01h.005a.249.249,0,0,0,.044.005h.013a.31.31,0,0,0,.049,0,.22.22,0,0,0,.041,0,.023.023,0,0,0,.013,0l.028,0h0l4.7-.657a.618.618,0,0,0-.172-1.224Zm4.886-13.061-7.391,1.044-1.966.278-1.777-.972-3.325-1.82,9.357-1.322Zm-15.777-.781,5.686,3.111-.013,6.608-.008,4.358-5.686-3.108Z"
          transform="translate(0 0)"/>
    <path id="路径_38" data-name="路径 38"
          d="M184.565,388.363l-2.212-1.262a.625.625,0,0,0-.621,1.085l2.212,1.262a.637.637,0,0,0,.31.083.625.625,0,0,0,.31-1.169Z"
          transform="translate(-79.489 -230.462)"/>
  </g>
</svg>
