<svg xmlns="http://www.w3.org/2000/svg" width="50.537" height="55.575" viewBox="0 0 50.537 55.575">
  <defs>
    <style>
      .cls-1 {
        fill: #f1804e;
        stroke: #f1804e;
        stroke-width: 2px;
      }
    </style>
  </defs>
  <g id="不通过" transform="translate(1 1.094)">
    <path id="路径_11" data-name="路径 11" class="cls-1" d="M176.721,151.532a8.091,8.091,0,0,1-4.045-1.084l-16.182-9.329a8.091,8.091,0,0,1-4.045-7.023v-18.65a8.091,8.091,0,0,1,4.045-7.015l16.174-9.3a8.091,8.091,0,0,1,8.091,0l16.182,9.329a8.091,8.091,0,0,1,4.045,7.015V134.1a8.091,8.091,0,0,1-4.045,7.023l-16.182,9.329A8.09,8.09,0,0,1,176.721,151.532Zm0-51.086a5.663,5.663,0,0,0-2.84.761L157.7,110.535a5.664,5.664,0,0,0-2.84,4.919V134.1a5.664,5.664,0,0,0,2.84,4.919l16.182,9.329a5.664,5.664,0,0,0,5.664,0l16.182-9.329a5.664,5.664,0,0,0,2.84-4.919V115.446a5.664,5.664,0,0,0-2.84-4.919L179.544,101.2A5.663,5.663,0,0,0,176.721,100.446Z" transform="translate(-152.448 -98.051)"/>
    <path id="路径_12" data-name="路径 12" class="cls-1" d="M427.451,412.929a1.213,1.213,0,0,1-.89-.356L413.348,399.32a1.214,1.214,0,0,1,1.715-1.715l13.245,13.253a1.214,1.214,0,0,1-.858,2.071Z" transform="translate(-396.552 -378.365)"/>
    <path id="路径_13" data-name="路径 13" class="cls-1" d="M413.773,412.929a1.214,1.214,0,0,1-.858-2.071l13.212-13.253a1.214,1.214,0,0,1,1.715,1.715l-13.212,13.253a1.214,1.214,0,0,1-.858.356Z" transform="translate(-396.118 -378.365)"/>
  </g>
</svg>
