<svg xmlns="http://www.w3.org/2000/svg" width="44.908" height="40.549" viewBox="0 0 44.908 40.549">
  <defs>
    <style>
      .cls-1 {
        fill: #a59f83;
      }
    </style>
  </defs>
  <g id="shangpin" transform="translate(0 0)">
    <path id="路径_31" data-name="路径 31" class="cls-1" d="M36.808,40.549H8.1a8.109,8.109,0,0,1-8.1-8.1,1.377,1.377,0,0,1,.01-.163l2.9-24.273A8.109,8.109,0,0,1,11.007,0H33.9A8.109,8.109,0,0,1,42,8.013l2.9,24.269a1.378,1.378,0,0,1,.01.163,8.109,8.109,0,0,1-8.1,8.1ZM2.753,32.526A5.352,5.352,0,0,0,8.1,37.794h28.71a5.352,5.352,0,0,0,5.345-5.268L39.259,8.263a1.378,1.378,0,0,1-.01-.163A5.352,5.352,0,0,0,33.9,2.754H11.007A5.352,5.352,0,0,0,5.662,8.1a1.377,1.377,0,0,1-.01.163Z"/>
    <path id="路径_32" data-name="路径 32" class="cls-1" d="M359.032,313.74a8.586,8.586,0,0,1-8.576-8.576,1.377,1.377,0,1,1,2.754,0,5.824,5.824,0,0,0,11.649,0,1.377,1.377,0,1,1,2.754,0A8.592,8.592,0,0,1,359.032,313.74Z" transform="translate(-336.578 -291.757)"/>
  </g>
</svg>
