<svg xmlns="http://www.w3.org/2000/svg" width="42.816" height="43.825" viewBox="0 0 42.816 43.825">
  <defs>
    <style>
      .cls-1 {
        fill: #a49e83;
        stroke: #a49e83;
      }
    </style>
  </defs>
  <g id="待付款" transform="translate(-134.051 -98.642)">
    <path id="路径_16" data-name="路径 16" class="cls-1" d="M155.782,139.649H138.029a1.449,1.449,0,0,1-1.485-1.377v-35.76a1.426,1.426,0,0,1,1.485-1.377h31.992a1.449,1.449,0,0,1,1.485,1.377v17.9a1.014,1.014,0,0,0,2.029,0v-17.9a3.411,3.411,0,0,0-3.478-3.369H138.029a3.434,3.434,0,0,0-3.478,3.369v35.76a3.411,3.411,0,0,0,3.478,3.37h17.753a1.013,1.013,0,0,0,1.014-1.014A.982.982,0,0,0,155.782,139.649Z" transform="translate(0 0)"/>
    <path id="路径_17" data-name="路径 17" class="cls-1" d="M664.135,640.632a7.766,7.766,0,0,0-7.754-7.536h-.217a7.755,7.755,0,0,0,.217,15.507h.218A7.719,7.719,0,0,0,664.135,640.632Zm-3.188,4.493a6.16,6.16,0,0,1-4.384,1.957h-.181a6.11,6.11,0,0,1-4.348-1.775,6.222,6.222,0,0,1-1.884-4.312,6.288,6.288,0,0,1,1.7-4.492,6.16,6.16,0,0,1,4.384-1.957h.181a6.11,6.11,0,0,1,4.348,1.775,6.3,6.3,0,0,1,.181,8.8Z" transform="translate(-487.774 -506.635)"/>
    <path id="路径_18" data-name="路径 18" class="cls-1" d="M322.542,274.054H319.1v-3.841a.761.761,0,1,0-1.522,0v4.6a.765.765,0,0,0,.761.761h4.2a.761.761,0,0,0,0-1.522Zm-19.565,2.5a1.013,1.013,0,0,0,1.014-1.014V265.9h8.7a1.014,1.014,0,0,0,0-2.029h-8.7v-6.63h7.862a1.015,1.015,0,0,0,0-2.029H304.97l5.688-7.065a.9.9,0,1,0-1.413-1.123l-6.268,7.753-6.232-7.753a.9.9,0,1,0-1.413,1.123l5.688,7.065h-6.7a1.015,1.015,0,1,0,0,2.029H302v6.667h-8.514a1.014,1.014,0,0,0,0,2.029H302v9.638A1,1,0,0,0,302.977,276.554Z" transform="translate(-149.84 -139.985)"/>
  </g>
</svg>
