<svg xmlns="http://www.w3.org/2000/svg" width="43.821" height="43.521" viewBox="0 0 43.821 43.521">
  <defs>
    <style>
      .cls-1 {
        fill: #a59f83;
      }
    </style>
  </defs>
  <g id="daifahuo" transform="translate(-129 -129.7)">
    <path id="路径_26" data-name="路径 26" class="cls-1" d="M167.632,147H134.189A5.2,5.2,0,0,1,129,141.809v-6.919a5.2,5.2,0,0,1,5.189-5.189h33.443a5.2,5.2,0,0,1,5.189,5.189v6.919A5.2,5.2,0,0,1,167.632,147ZM134.189,133.16a1.735,1.735,0,0,0-1.73,1.73v6.919a1.735,1.735,0,0,0,1.73,1.73h33.443a1.735,1.735,0,0,0,1.73-1.73v-6.919a1.735,1.735,0,0,0-1.73-1.73Z"/>
    <path id="路径_27" data-name="路径 27" class="cls-1" d="M206.479,383.559a1.727,1.727,0,0,1-1.73-1.73v-4.313a1.73,1.73,0,1,1,3.46,0v4.313A1.727,1.727,0,0,1,206.479,383.559Zm-3.46,21.478h-28.83A5.2,5.2,0,0,1,169,399.848V377.43a1.73,1.73,0,1,1,3.46,0v22.418a1.735,1.735,0,0,0,1.73,1.73h28.83a1.735,1.735,0,0,0,1.73-1.73V397a1.73,1.73,0,0,1,3.46,0v2.848A5.2,5.2,0,0,1,203.019,405.037Z" transform="translate(-37.694 -231.816)"/>
    <path id="路径_28" data-name="路径 28" class="cls-1" d="M557.913,591.983H545.442a1.441,1.441,0,0,1,0-2.883h12.472a1.441,1.441,0,0,1,0,2.883Z" transform="translate(-391.071 -432.911)"/>
    <path id="路径_29" data-name="路径 29" class="cls-1" d="M706.5,503.768a1.429,1.429,0,0,1-.9-.317l-5.916-4.745a1.439,1.439,0,0,1,1.8-2.243l5.916,4.745a1.439,1.439,0,0,1-.905,2.56Z" transform="translate(-537.268 -345.314)"/>
    <path id="路径_30" data-name="路径 30" class="cls-1" d="M717.432,596.184a1.441,1.441,0,0,1-1.136-2.329l4.624-5.91a1.442,1.442,0,1,1,2.272,1.776l-4.624,5.91A1.447,1.447,0,0,1,717.432,596.184Z" transform="translate(-553.144 -431.3)"/>
  </g>
</svg>
