<?xml version="1.0" standalone="no"?><!DOCTYPE svg PUBLIC "-//W3C//DTD SVG 1.1//EN" "http://www.w3.org/Graphics/SVG/1.1/DTD/svg11.dtd"><svg t="1596249978707" class="icon" viewBox="0 0 1024 1024" version="1.1" xmlns="http://www.w3.org/2000/svg" p-id="7383" xmlns:xlink="http://www.w3.org/1999/xlink" width="200" height="200"><defs><style type="text/css"></style></defs><path d="M521.3 692.7c0-37.4 10-72.5 27.5-102.7-4.1-1.4-8.2-2.8-12.2-4.2-4.8-1.6-35.2-15.3-16.2-73l-0.3 0c49.5-51 87.3-133.1 87.3-213.9 0-124.2-82.6-189.3-178.6-189.3-96-0.1-178.2 65.1-178.2 189.3 0 81.1 37.7 163.5 87.5 214.4 19.4 50.9-15.4 69.8-22.6 72.5C215 622.2 97 688.5 97 753.9l0 24.5c0 89.2 172.8 109.4 332.8 109.4 69 0 139.9-3.8 198.4-15.2C564.5 837.9 521.3 770.3 521.3 692.7z" p-id="7384"></path><path d="M853.6 565.4c-34-34-79.2-52.7-127.3-52.7-48.1 0-93.3 18.7-127.3 52.7-34 34-52.7 79.2-52.7 127.3 0 48.1 18.7 93.3 52.7 127.3 34 34 79.2 52.7 127.3 52.7 48.1 0 93.3-18.7 127.3-52.7 34-34 52.7-79.2 52.7-127.3C906.4 644.6 887.6 599.4 853.6 565.4zM829.7 705.6c0 7.1-5.8 12.9-12.9 12.9l-64.6 0 0 64.6c0 7.1-5.8 12.9-12.9 12.9l-25.8 0c-7.1 0-12.9-5.8-12.9-12.9l0-64.6L636 718.5c-7.1 0-12.9-5.8-12.9-12.9l0-25.8c0-7.1 5.8-12.9 12.9-12.9l64.6 0 0-64.6c0-7.1 5.8-12.9 12.9-12.9l25.8 0c7.1 0 12.9 5.8 12.9 12.9l0 64.6 64.6 0c7.1 0 12.9 5.8 12.9 12.9L829.7 705.6z" p-id="7385"></path></svg>