<?xml version="1.0" standalone="no"?><!DOCTYPE svg PUBLIC "-//W3C//DTD SVG 1.1//EN" "http://www.w3.org/Graphics/SVG/1.1/DTD/svg11.dtd"><svg t="1596250436717" class="icon" viewBox="0 0 1024 1024" version="1.1" xmlns="http://www.w3.org/2000/svg" p-id="20153" xmlns:xlink="http://www.w3.org/1999/xlink" width="200" height="200"><defs><style type="text/css"></style></defs><path d="M692.679547 442.85827c-46.713928 0-89.741907 15.625886-124.253932 41.963741H257.334391c-13.939477 0-25.38925 11.473309-25.38925 25.437345v3.3984c0 13.964036 11.44875 25.429159 25.38925 25.429159h261.527389c-19.441794 30.875195-30.891568 67.335594-31.431873 106.424868H257.334391c-13.939477 0-25.38925 11.474332-25.38925 25.436322v3.3984c0 13.95585 11.44875 25.437345 25.38925 25.437346h236.500389c13.119809 51.315736 45.517683 94.868671 88.988754 122.492821H198.483029c-39.768749 0-72.249511-32.603559-72.249511-72.380494V274.102798c0-39.850613 32.54523-72.380494 72.249511-72.380494h627.016546c39.785122 0 72.26486 32.602535 72.264861 72.380494v366.806154c-3.996011-110.044302-94.262874-198.050682-205.084889-198.050682z m99.373265-93.2805c0-13.9712-11.44875-25.437345-25.388227-25.437345H257.334391c-13.939477 0-25.38925 11.466146-25.38925 25.437345v3.390214c0 13.963013 11.44875 25.436322 25.38925 25.436322h509.330194c13.939477 0 25.388227-11.473309 25.388227-25.436322v-3.390214z m-99.373265 135.023207c90.331331 0 163.645081 73.354682 163.645081 163.932629 0 90.569762-73.313749 163.93263-163.645081 163.93263-90.348728 0-163.646104-73.362868-163.646104-163.93263 0-90.496084 73.232908-163.93263 163.646104-163.932629z m-52.724828 213.733872h46.041615v45.353954c0 6.323009 4.717442 11.456936 10.532891 11.456936 5.814426 0 10.54824-5.134951 10.54824-11.456936v-45.353954h45.697785c5.815449 0 10.549264-5.134951 10.549264-11.44875 0-6.321986-4.733814-11.456936-10.549264-11.456936H707.077465v-32.643468h45.959752c5.815449 0 10.549264-5.143137 10.549263-11.456936 0-6.314823-4.733814-11.456936-10.549263-11.456936H711.058127l42.340317-46.026266c1.998517-2.162246 3.095501-5.028527 3.095501-8.091282s-1.096984-5.930059-3.095501-8.091283c-1.982144-2.170432-4.634554-3.357468-7.452739-3.357467-2.799766 0-5.454222 1.187035-7.451716 3.357467l-42.422182 46.091758-42.816154-46.525639c-1.982144-2.162246-4.635577-3.349281-7.436366-3.349282-2.817162 0-5.471618 1.187035-7.45274 3.349282-1.998517 2.169409-3.095501 5.0449-3.095501 8.099468 0 3.062755 1.096984 5.945409 3.095501 8.107655l42.734291 46.435589h-40.817638c-5.815449 0-10.549264 5.142114-10.549264 11.456936 0 6.313799 4.733814 11.456936 10.549264 11.456936h45.714158v32.643468h-46.041616c-5.815449 0-10.531867 5.135974-10.531867 11.456936-0.001023 6.313799 4.715395 11.44875 10.530844 11.44875z" p-id="20154"></path></svg>