<svg t="1594519304210" class="icon" viewBox="0 0 1071 1024" version="1.1" xmlns="http://www.w3.org/2000/svg" p-id="1632" width="200" height="200"><path d="M899.405395 666.86214c0-20.956279-17.074605-38.00707-38.102325-38.00707H632.736744c-21.027721 0-38.102326 17.026977-38.102325 38.00707 0 20.980093 17.074605 38.00707 38.102325 38.007069h228.613954c21.003907 0 38.078512-17.026977 38.078511-38.007069z m152.409303 152.004465c0-20.956279-17.098419-38.00707-38.102326-38.00707H632.689116c-21.027721 0-38.102326 17.026977-38.102325 38.00707 0 20.980093 17.074605 38.00707 38.102325 38.007069h380.975628c21.027721 0 38.102326-17.026977 38.102326-38.007069z m-76.204651 152.004465c0-20.956279-17.074605-37.983256-38.102326-37.983256H632.71293c-21.027721 0-38.102326 17.003163-38.102325 37.983256s17.074605 38.00707 38.102325 38.00707h304.794791c21.027721 0 38.102326-17.026977 38.102326-38.00707z m-26.004838-524.716651c0-2.429023-0.976372-4.643721-1.428837-7.001303l-17.384186-155.743256a37.76893 37.76893 0 0 0-37.554605-33.720558h-189.344744V211.753674c0-104.56707-84.896744-189.630512-189.273302-189.630511-104.376558 0-189.416186 85.063442-189.416186 189.630511v37.935628h-189.32093a37.864186 37.864186 0 0 0-37.649861 33.744372L22.385116 966.251163c-1.214512 10.716279 2.214698 21.456372 9.45414 29.481674 7.144186 8.025302 17.408 12.621395 28.195721 12.621396h379.046697a38.00707 38.00707 0 0 0 37.959442-37.935628c0-20.884837-17.003163-37.911814-37.959442-37.911814H102.423814l67.34586-606.898605h155.433675v113.854512c0 20.980093 16.907907 38.00707 37.864186 38.007069 20.884837 0 37.864186-17.026977 37.864186-38.007069v-113.854512h227.20893v113.854512c0 20.956279 16.907907 38.00707 37.792744 38.007069 20.956279 0 37.864186-17.026977 37.864186-38.007069v-113.854512h155.528931l13.859721 125.856744 1.071627-0.142883c2.667163 18.55107 17.908093 32.982326 37.10214 32.982325a38.221395 38.221395 0 0 0 38.245209-38.149953z m-321.464558-196.465117h-227.185116V211.753674a113.830698 113.830698 0 0 1 113.592558-113.783069 113.830698 113.830698 0 0 1 113.592558 113.783069v37.935628z" fill="#1296db" p-id="1633"></path></svg>