<?xml version="1.0" standalone="no"?><!DOCTYPE svg PUBLIC "-//W3C//DTD SVG 1.1//EN" "http://www.w3.org/Graphics/SVG/1.1/DTD/svg11.dtd"><svg t="1596250063997" class="icon" viewBox="0 0 1024 1024" version="1.1" xmlns="http://www.w3.org/2000/svg" p-id="11445" xmlns:xlink="http://www.w3.org/1999/xlink" width="200" height="200"><defs><style type="text/css"></style></defs><path d="M512 691.432727A180.130909 180.130909 0 1 0 332.8 512a179.665455 179.665455 0 0 0 179.2 179.432727zM93.090909 512a471.04 471.04 0 0 1 8.378182-88.669091 157.090909 157.090909 0 0 0 120.552727-81.221818 170.589091 170.589091 0 0 0 6.050909-153.134546A414.487273 414.487273 0 0 1 385.163636 93.090909a153.134545 153.134545 0 0 0 258.094546 0 415.650909 415.650909 0 0 1 156.392727 97.047273 169.658182 169.658182 0 0 0 7.447273 151.970909 156.392727 156.392727 0 0 0 116.363636 78.894545 461.963636 461.963636 0 0 1-3.258182 193.163637 158.487273 158.487273 0 0 0-112.64 80.756363 169.658182 169.658182 0 0 0-11.636363 139.636364A416.116364 416.116364 0 0 1 633.716364 930.909091a152.669091 152.669091 0 0 0-241.338182 0A412.16 412.16 0 0 1 232.727273 835.956364a170.123636 170.123636 0 0 0-10.705455-142.196364 157.323636 157.323636 0 0 0-116.363636-81.221818A461.265455 461.265455 0 0 1 93.090909 512z" p-id="11446"></path></svg>